<svg width="131" height="131" viewBox="0 0 131 131" version="1.1" xmlns="http://www.w3.org/2000/svg" xmlns:xlink="http://www.w3.org/1999/xlink" xmlns:figma="http://www.figma.com/figma/ns">
<title>Layer 1</title>
<desc>Created using Figma</desc>
<g id="Canvas" transform="translate(-3507 -2342)" figma:type="canvas">
<g id="Layer 1" style="mix-blend-mode:normal;" figma:type="frame">
<g id="Vector" style="mix-blend-mode:normal;" figma:type="vector">
<use xlink:href="#path0_fill" transform="translate(3572.79 2407.63)" fill="#FFFFFF" style="mix-blend-mode:normal;"/>
</g>
<g id="Vector" style="mix-blend-mode:normal;" figma:type="vector">
<use xlink:href="#path1_fill" transform="translate(3507.79 2342.84)" fill="#FFFFFF" style="mix-blend-mode:normal;"/>
</g>
</g>
</g>
<defs>
<path id="path0_fill" d="M 56.875 24.4526L 40.625 24.4526L 40.625 8.15087C 40.625 5.98912 39.769 3.91592 38.2452 2.38733C 36.7215 0.85875 34.6549 0 32.5 0C 30.3451 0 28.2785 0.85875 26.7548 2.38733C 25.231 3.91592 24.375 5.98912 24.375 8.15087L 24.375 24.4526L 8.125 24.4526C 5.97012 24.4526 3.90349 25.3114 2.37976 26.8399C 0.856024 28.3685 0 30.4417 0 32.6035C 0 34.7652 0.856024 36.8384 2.37976 38.367C 3.90349 39.8956 5.97012 40.7543 8.125 40.7543L 24.375 40.7543L 24.375 57.0561C 24.375 59.2178 25.231 61.291 26.7548 62.8196C 28.2785 64.3482 30.3451 65.207 32.5 65.207C 34.6549 65.207 36.7215 64.3482 38.2452 62.8196C 39.769 61.291 40.625 59.2178 40.625 57.0561L 40.625 40.7543L 56.875 40.7543C 59.0299 40.7543 61.0965 39.8956 62.6202 38.367C 64.144 36.8384 65 34.7652 65 32.6035C 65 30.4417 64.144 28.3685 62.6202 26.8399C 61.0965 25.3114 59.0299 24.4526 56.875 24.4526Z"/>
<path id="path1_fill" d="M 24.375 105.548L 17.3063 49.0621L 17.875 48.4915L 112.044 48.4915L 112.612 49.0621L 110.662 64.7932L 119.519 72.9441L 121.875 48.4915L 125.938 48.4915C 127.015 48.4915 128.048 48.0621 128.81 47.2978C 129.572 46.5335 130 45.4969 130 44.4161C 130 43.3352 129.572 42.2986 128.81 41.5343C 128.048 40.77 127.015 40.3406 125.938 40.3406L 115.456 40.3406L 76.9437 1.70551C 76.1128 0.822428 75.0008 0.257825 73.7994 0.109034C 72.5981 -0.039758 71.3826 0.236586 70.3625 0.890427C 69.613 1.66598 69.1938 2.70377 69.1938 3.78399C 69.1938 4.8642 69.613 5.90199 70.3625 6.67754L 103.919 40.3406L 26 40.3406L 59.6375 6.59604C 60.0158 6.22417 60.3164 5.78031 60.5216 5.29045C 60.7268 4.80059 60.8325 4.27458 60.8325 3.74323C 60.8325 3.21188 60.7268 2.68587 60.5216 2.19601C 60.3164 1.70616 60.0158 1.26229 59.6375 0.890427C 58.6662 0.212579 57.4851 -0.0942843 56.3079 0.0253084C 55.1307 0.144901 54.0349 0.683058 53.2188 1.5425L 14.5437 40.3406L 4.0625 40.3406C 2.98506 40.3406 1.95175 40.77 1.18988 41.5343C 0.428012 42.2986 0 43.3352 0 44.4161C 0 45.4969 0.428012 46.5335 1.18988 47.2978C 1.95175 48.0621 2.98506 48.4915 4.0625 48.4915L 8.125 48.4915L 16.25 105.548C 16.25 107.709 17.106 109.783 18.6298 111.311C 20.1535 112.84 22.2201 113.698 24.375 113.698L 65 113.698L 56.875 105.548L 24.375 105.548Z"/>
</defs>
</svg>
