<svg width="32" height="32" viewBox="0 0 32 32" version="1.1" xmlns="http://www.w3.org/2000/svg" xmlns:xlink="http://www.w3.org/1999/xlink" xmlns:figma="http://www.figma.com/figma/ns">
<title>instagram_white</title>
<desc>Created using Figma</desc>
<g id="Canvas" transform="translate(-3583 -4883)" figma:type="canvas">
<g id="instagram_white" style="mix-blend-mode:normal;" figma:type="frame">
<g id="Layer 2" style="mix-blend-mode:normal;" figma:type="frame">
<g id="Layer 1" style="mix-blend-mode:normal;" figma:type="frame">
<g id="Vector" style="mix-blend-mode:normal;" figma:type="vector">
<use xlink:href="#path0_fill" transform="translate(3583 4883)" fill="#FFFFFF" style="mix-blend-mode:normal;"/>
</g>
</g>
</g>
</g>
</g>
<defs>
<path id="path0_fill" d="M 28 1.11022e-16L 4 1.11022e-16C 2.93913 7.77156e-16 1.92172 0.421427 1.17157 1.17157C 0.421427 1.92172 1.08247e-15 2.93913 0 4L 7.77156e-16 28C 1.36002e-15 29.0609 0.421427 30.0783 1.17157 30.8284C 1.92172 31.5786 2.93913 32 4 32L 28 32C 29.0609 32 30.0783 31.5786 30.8284 30.8284C 31.5786 30.0783 32 29.0609 32 28L 32 4C 32 2.93913 31.5786 1.92172 30.8284 1.17157C 30.0783 0.421427 29.0609 6.66134e-16 28 0L 28 1.11022e-16ZM 16 12C 19.68 12 20 16 20 16C 20.0257 16.5321 19.9399 17.0637 19.748 17.5606C 19.556 18.0576 19.2623 18.5089 18.8856 18.8856C 18.5089 19.2623 18.0576 19.556 17.5606 19.748C 17.0637 19.9399 16.5321 20.0257 16 20C 15.4679 20.0257 14.9363 19.9399 14.4394 19.748C 13.9424 19.556 13.4911 19.2623 13.1144 18.8856C 12.7377 18.5089 12.444 18.0576 12.252 17.5606C 12.0601 17.0637 11.9743 16.5321 12 16C 12 16 12.32 12 16 12ZM 28 26C 28 26.5304 27.7893 27.0391 27.4142 27.4142C 27.0391 27.7893 26.5304 28 26 28L 6 28C 5.46957 28 4.96086 27.7893 4.58579 27.4142C 4.21071 27.0391 4 26.5304 4 26L 4 16C 4 15.4696 4.21071 14.9609 4.58579 14.5858C 4.96086 14.2107 5.46957 14 6 14L 8.28 14C 8.10105 14.6519 8.00694 15.3241 8 16C 7.98629 17.1438 8.21804 18.2773 8.67961 19.3239C 9.14119 20.3706 9.82185 21.3061 10.6757 22.0673C 11.5295 22.8285 12.5367 23.3978 13.6293 23.7367C 14.7218 24.0756 15.8743 24.1763 17.0091 24.0319C 18.1439 23.8875 19.2345 23.5015 20.2073 22.8998C 21.1802 22.2981 22.0128 21.4948 22.6488 20.544C 23.2848 19.5932 23.7096 18.5171 23.8944 17.3882C 24.0791 16.2593 24.0197 15.104 23.72 14L 26 14C 26.5304 14 27.0391 14.2107 27.4142 14.5858C 27.7893 14.9609 28 15.4696 28 16L 28 26ZM 28 8C 28 8.53043 27.7893 9.03914 27.4142 9.41421C 27.0391 9.78929 26.5304 10 26 10L 24 10C 23.4696 10 22.9609 9.78929 22.5858 9.41421C 22.2107 9.03914 22 8.53043 22 8L 22 6C 22 5.46957 22.2107 4.96086 22.5858 4.58579C 22.9609 4.21071 23.4696 4 24 4L 26 4C 26.5304 4 27.0391 4.21071 27.4142 4.58579C 27.7893 4.96086 28 5.46957 28 6L 28 8Z"/>
</defs>
</svg>
