<svg width="164" height="189" viewBox="0 0 164 189" version="1.1" xmlns="http://www.w3.org/2000/svg" xmlns:xlink="http://www.w3.org/1999/xlink" xmlns:figma="http://www.figma.com/figma/ns">
<title>landing</title>
<desc>Created using Figma</desc>
<g id="Canvas" transform="translate(-3143 -666)" figma:type="canvas">
<g id="landing" style="mix-blend-mode:normal;" figma:type="frame">
<g id="Vector" style="mix-blend-mode:normal;" figma:type="vector">
<use xlink:href="#path0_fill" transform="translate(3147.59 670.276)" fill="#EE3840" style="mix-blend-mode:normal;"/>
</g>
<g id="Vector" style="mix-blend-mode:normal;" figma:type="vector">
<use xlink:href="#path1_fill" transform="translate(3212.7 799.685)" fill="#FFB14D" style="mix-blend-mode:normal;"/>
</g>
<g id="Vector" style="mix-blend-mode:normal;" figma:type="vector">
<use xlink:href="#path2_fill" transform="translate(3199.1 670.276)" fill="#FFE1D6" style="mix-blend-mode:normal;"/>
</g>
<g id="Vector" style="mix-blend-mode:normal;" figma:type="vector">
<use xlink:href="#path3_fill" transform="translate(3197.39 812.512)" fill="#FF9E24" style="mix-blend-mode:normal;"/>
</g>
<g id="Vector" style="mix-blend-mode:normal;" figma:type="vector">
<use xlink:href="#path4_fill" transform="translate(3197.39 829.618)" fill="#FFB14D" style="mix-blend-mode:normal;"/>
</g>
<g id="Vector" style="mix-blend-mode:normal;" figma:type="vector">
<use xlink:href="#path5_fill" transform="translate(3143.32 666)" fill="#11113F" style="mix-blend-mode:normal;"/>
</g>
</g>
</g>
<defs>
<path id="path0_fill" d="M 77.32 -1.35183e-07C 34.6173 -1.35183e-07 -3.37627e-07 34.6516 -3.37627e-07 77.3959C 5.5693 69.1445 15.0001 63.5775 25.6972 63.5775C 36.4545 63.5775 45.9284 69.0662 51.4856 77.3959L 64.4581 46.4733L 90.0889 46.4733L 103.061 77.3959C 108.617 69.0662 118.091 63.5775 128.849 63.5775C 139.607 63.5775 149.084 69.0662 154.64 77.3959C 154.64 34.6516 120.022 -1.35183e-07 77.32 -1.35183e-07Z"/>
<path id="path1_fill" d="M 24.4091 5.58758e-06L 2.56596e-06 5.58758e-06L 2.56596e-06 17.1041L 24.4091 17.1041L 24.4091 5.58758e-06Z"/>
<path id="path2_fill" d="M 25.8046 -1.35183e-07C 11.5704 -1.35183e-07 -2.656e-06 34.6516 -2.656e-06 77.3959C 5.55639 69.0662 15.0001 63.5775 25.7573 63.5775C 36.5146 63.5775 46.0048 69.0662 51.5619 77.3959C 51.5615 34.6516 40.0387 -1.35183e-07 25.8046 -1.35183e-07Z"/>
<path id="path3_fill" d="M 55.0351 3.60489e-07L 1.39552e-06 3.60489e-07L 1.39552e-06 17.1041L 27.5175 25.656L 55.0351 17.1041L 55.0351 3.60489e-07Z"/>
<path id="path4_fill" d="M 55.034 5.04684e-06L 0 5.04684e-06L 0 21.1063L 55.034 21.1063L 55.034 5.04684e-06Z"/>
<path id="path5_fill" d="M 162.038 84.5827C 162.087 84.5291 162.136 84.4752 162.183 84.4199C 162.222 84.3734 162.259 84.3261 162.297 84.2778C 162.337 84.2246 162.376 84.1703 162.415 84.1157C 162.449 84.0666 162.483 84.0179 162.515 83.9677C 162.56 83.8972 162.601 83.8245 162.642 83.7514C 162.671 83.6982 162.7 83.6454 162.728 83.5912C 162.773 83.5003 162.817 83.4081 162.856 83.3139C 162.873 83.2726 162.888 83.2305 162.904 83.1892C 162.933 83.1105 162.962 83.0315 162.987 82.9507C 163.001 82.9068 163.013 82.8625 163.026 82.8182C 163.048 82.7377 163.068 82.6561 163.086 82.5742C 163.095 82.5299 163.105 82.4856 163.113 82.4413C 163.129 82.3571 163.14 82.2715 163.151 82.1855C 163.156 82.1426 163.162 82.0998 163.166 82.057C 163.175 81.9599 163.179 81.8621 163.182 81.7632C 163.182 81.7303 163.185 81.6975 163.185 81.6642C 163.179 36.6339 126.579 0 81.5919 0C 36.6028 0 0.00184389 36.6365 0 81.6694C 0 81.6953 0.00258124 81.7207 0.00295002 81.7462C 0.00479391 81.8514 0.00921898 81.9559 0.0188072 82.0589C 0.022495 82.0987 0.0287648 82.1378 0.0331901 82.1777C 0.0438847 82.2671 0.056423 82.356 0.0719117 82.4439C 0.0796561 82.4859 0.0885069 82.5273 0.0973575 82.569C 0.115796 82.6546 0.136079 82.7388 0.159681 82.8222C 0.171113 82.8636 0.182914 82.9049 0.195452 82.9463C 0.222004 83.0315 0.251876 83.1146 0.283591 83.1973C 0.297974 83.2349 0.31088 83.273 0.326369 83.3106C 0.370253 83.4169 0.418564 83.5214 0.471299 83.6236C 0.491951 83.6639 0.514816 83.703 0.536942 83.7425C 0.579352 83.8186 0.622498 83.8942 0.668964 83.9677C 0.699573 84.016 0.733132 84.0629 0.765953 84.1105C 0.805413 84.1674 0.845241 84.2235 0.887651 84.2781C 0.923422 84.3246 0.9603 84.3708 0.998284 84.4162C 1.04623 84.4734 1.09638 84.5291 1.14727 84.5838C 1.1823 84.6214 1.2166 84.6598 1.25311 84.6964C 1.34199 84.7853 1.43455 84.8717 1.53154 84.9529C 1.54518 84.9644 1.5603 84.9747 1.57432 84.9861C 1.66393 85.0592 1.75723 85.1286 1.85311 85.1947C 1.86491 85.2032 1.87635 85.2128 1.88815 85.2213L 67.9512 129.66C 66.2987 130.251 65.1138 131.827 65.1138 133.684L 65.1138 142.236L 54.0736 142.236C 51.7142 142.236 49.8017 144.151 49.8017 146.512L 49.8017 184.724C 49.8017 187.085 51.7142 189 54.0736 189L 109.108 189C 111.467 189 113.38 187.085 113.38 184.724L 113.38 146.512C 113.38 144.151 111.467 142.236 109.108 142.236L 98.0678 142.236L 98.0678 133.684C 98.0678 131.827 96.8833 130.252 95.2308 129.661L 161.294 85.2213C 161.305 85.2135 161.315 85.205 161.326 85.1973C 161.427 85.1275 161.525 85.0548 161.62 84.9769C 161.629 84.9692 161.639 84.9629 161.648 84.9551C 161.745 84.8743 161.837 84.7879 161.926 84.699C 161.966 84.6609 162.001 84.6214 162.038 84.5827ZM 60.7758 82.0529C 65.8318 75.7986 73.4275 72.1293 81.5451 72.1293C 89.6936 72.1293 97.3159 75.8274 102.371 82.1257L 81.5919 124.061L 60.7758 82.0529ZM 52.2043 84.0463C 52.2239 84.0758 52.2478 84.1013 52.2685 84.1305L 70.6101 121.145L 10.4866 80.7008C 15.5355 75.2733 22.5593 72.1293 29.9692 72.1293C 38.9143 72.1297 47.2269 76.5849 52.2043 84.0463ZM 111.14 83.6779C 116.143 76.4394 124.325 72.1297 133.121 72.1297C 140.631 72.1297 147.693 75.2696 152.712 80.6908L 92.5741 121.145L 111.14 83.6779ZM 153.749 70.2412C 147.828 65.9628 140.645 63.5775 133.121 63.5775C 125.127 63.5775 117.518 66.274 111.398 71.0703C 110.898 59.9436 109.615 49.2463 107.611 39.6715C 107.127 37.3607 104.866 35.8783 102.554 36.3637C 100.245 36.8476 98.7648 39.1141 99.249 41.4257C 101.118 50.3548 102.33 60.3342 102.831 70.7432C 96.7871 66.1555 89.3521 63.5771 81.5451 63.5771C 73.7749 63.5771 66.3743 66.1319 60.3458 70.6782C 62.1632 31.9126 73.3652 8.55188 81.5923 8.55188C 86.2076 8.55188 91.5784 15.9417 95.6099 27.838C 96.2136 29.6195 97.875 30.742 99.6551 30.742C 100.11 30.742 100.573 30.6686 101.028 30.5143C 103.262 29.7561 104.459 27.3279 103.701 25.0916C 101.649 19.0355 99.3121 14.0362 96.7343 10.1344C 126.114 16.3577 149.035 40.3113 153.749 70.2412ZM 66.4421 10.1355C 63.7965 14.1444 61.4061 19.3131 59.3151 25.5925C 55.1483 38.1053 52.5403 53.9916 51.7806 71.1367C 45.6463 66.298 38.0019 63.5771 29.9695 63.5771C 22.5117 63.5771 15.3563 65.9735 9.43151 70.2685C 14.1345 40.329 37.0564 16.3644 66.4421 10.1355ZM 58.3463 180.448L 58.3463 167.893L 104.838 167.893L 104.838 180.448L 58.3463 180.448ZM 104.838 159.34L 58.3463 159.34L 58.3463 150.788L 104.838 150.788L 104.838 159.34ZM 73.6584 142.236L 73.6584 137.96L 89.5251 137.96L 89.5251 142.236L 73.6584 142.236Z"/>
</defs>
</svg>
