<svg width="109" height="37" viewBox="0 0 109 37" version="1.1" xmlns="http://www.w3.org/2000/svg" xmlns:xlink="http://www.w3.org/1999/xlink" xmlns:figma="http://www.figma.com/figma/ns">
<title>Group</title>
<desc>Created using Figma</desc>
<g id="Canvas" transform="translate(-3174 -4287)" figma:type="canvas">
<g id="Group" style="mix-blend-mode:normal;" figma:type="frame">
<g id="Group" style="mix-blend-mode:normal;" figma:type="frame">
<g id="Group" style="mix-blend-mode:normal;" figma:type="frame">
<g id="Ler o post" style="mix-blend-mode:normal;" figma:type="vector">
<use xlink:href="#path0_fill" transform="translate(3216.2 4300.17)" fill="#FF5331" style="mix-blend-mode:normal;"/>
<use xlink:href="#path1_fill" transform="translate(3216.2 4300.17)" fill="#FF5331" style="mix-blend-mode:normal;"/>
<use xlink:href="#path2_fill" transform="translate(3216.2 4300.17)" fill="#FF5331" style="mix-blend-mode:normal;"/>
<use xlink:href="#path3_fill" transform="translate(3216.2 4300.17)" fill="#FF5331" style="mix-blend-mode:normal;"/>
<use xlink:href="#path4_fill" transform="translate(3216.2 4300.17)" fill="#FF5331" style="mix-blend-mode:normal;"/>
<use xlink:href="#path5_fill" transform="translate(3216.2 4300.17)" fill="#FF5331" style="mix-blend-mode:normal;"/>
<use xlink:href="#path6_fill" transform="translate(3216.2 4300.17)" fill="#FF5331" style="mix-blend-mode:normal;"/>
<use xlink:href="#path7_fill" transform="translate(3216.2 4300.17)" fill="#FF5331" style="mix-blend-mode:normal;"/>
</g>
</g>
</g>
<g id="pen-feather-black-diagonal-shape-of-a-bird-wing" style="mix-blend-mode:normal;" figma:type="frame">
<g id="Group" style="mix-blend-mode:normal;" figma:type="frame">
<g id="Vector" style="mix-blend-mode:normal;" figma:type="vector">
<use xlink:href="#path8_fill" transform="translate(3174 4287.99)" fill="#FF5331" style="mix-blend-mode:normal;"/>
</g>
</g>
</g>
</g>
</g>
<defs>
<path id="path0_fill" d="M 1.552 10.16L 6.512 10.16L 6.512 11.464L 0 11.464L 0 0L 1.552 0L 1.552 10.16Z"/>
<path id="path1_fill" d="M 10.9215 3.232C 11.4068 3.232 11.8548 3.31467 12.2655 3.48C 12.6762 3.64 13.0308 3.87467 13.3295 4.184C 13.6282 4.488 13.8602 4.86667 14.0255 5.32C 14.1962 5.768 14.2815 6.28 14.2815 6.856C 14.2815 7.08 14.2575 7.22933 14.2095 7.304C 14.1615 7.37867 14.0708 7.416 13.9375 7.416L 8.5455 7.416C 8.55617 7.928 8.6255 8.37333 8.7535 8.752C 8.8815 9.13067 9.0575 9.448 9.2815 9.704C 9.5055 9.95467 9.77217 10.144 10.0815 10.272C 10.3908 10.3947 10.7375 10.456 11.1215 10.456C 11.4788 10.456 11.7855 10.416 12.0415 10.336C 12.3028 10.2507 12.5268 10.16 12.7135 10.064C 12.9002 9.968 13.0548 9.88 13.1775 9.8C 13.3055 9.71467 13.4148 9.672 13.5055 9.672C 13.6228 9.672 13.7135 9.71733 13.7775 9.808L 14.1775 10.328C 14.0015 10.5413 13.7908 10.728 13.5455 10.888C 13.3002 11.0427 13.0362 11.1707 12.7535 11.272C 12.4762 11.3733 12.1882 11.448 11.8895 11.496C 11.5908 11.5493 11.2948 11.576 11.0015 11.576C 10.4415 11.576 9.92417 11.4827 9.4495 11.296C 8.98017 11.104 8.57217 10.8267 8.2255 10.464C 7.88417 10.096 7.6175 9.64267 7.4255 9.104C 7.2335 8.56533 7.1375 7.94667 7.1375 7.248C 7.1375 6.68267 7.22283 6.15467 7.3935 5.664C 7.5695 5.17333 7.82017 4.74933 8.1455 4.392C 8.47083 4.02933 8.86817 3.74667 9.3375 3.544C 9.80683 3.336 10.3348 3.232 10.9215 3.232ZM 10.9535 4.28C 10.2655 4.28 9.72417 4.48 9.3295 4.88C 8.93483 5.27467 8.6895 5.824 8.5935 6.528L 13.0015 6.528C 13.0015 6.19733 12.9562 5.896 12.8655 5.624C 12.7748 5.34667 12.6415 5.10933 12.4655 4.912C 12.2895 4.70933 12.0735 4.55467 11.8175 4.448C 11.5668 4.336 11.2788 4.28 10.9535 4.28Z"/>
<path id="path2_fill" d="M 16.1041 11.464L 16.1041 3.36L 16.9201 3.36C 17.0748 3.36 17.1815 3.38933 17.2401 3.448C 17.2988 3.50667 17.3388 3.608 17.3601 3.752L 17.4561 5.016C 17.7335 4.45067 18.0748 4.01067 18.4801 3.696C 18.8908 3.376 19.3708 3.216 19.9201 3.216C 20.1441 3.216 20.3468 3.24267 20.5281 3.296C 20.7095 3.344 20.8775 3.41333 21.0321 3.504L 20.8481 4.568C 20.8108 4.70133 20.7281 4.768 20.6001 4.768C 20.5255 4.768 20.4108 4.744 20.2561 4.696C 20.1015 4.64267 19.8855 4.616 19.6081 4.616C 19.1121 4.616 18.6961 4.76 18.3601 5.048C 18.0295 5.336 17.7521 5.75467 17.5281 6.304L 17.5281 11.464L 16.1041 11.464Z"/>
<path id="path3_fill" d="M 28.931 3.232C 29.523 3.232 30.0563 3.33067 30.531 3.528C 31.011 3.72533 31.4163 4.00533 31.747 4.368C 32.083 4.73067 32.339 5.17067 32.515 5.688C 32.6963 6.2 32.787 6.77333 32.787 7.408C 32.787 8.048 32.6963 8.624 32.515 9.136C 32.339 9.648 32.083 10.0853 31.747 10.448C 31.4163 10.8107 31.011 11.0907 30.531 11.288C 30.0563 11.48 29.523 11.576 28.931 11.576C 28.339 11.576 27.803 11.48 27.323 11.288C 26.8483 11.0907 26.443 10.8107 26.107 10.448C 25.771 10.0853 25.5123 9.648 25.331 9.136C 25.1497 8.624 25.059 8.048 25.059 7.408C 25.059 6.77333 25.1497 6.2 25.331 5.688C 25.5123 5.17067 25.771 4.73067 26.107 4.368C 26.443 4.00533 26.8483 3.72533 27.323 3.528C 27.803 3.33067 28.339 3.232 28.931 3.232ZM 28.931 10.464C 29.731 10.464 30.3283 10.1973 30.723 9.664C 31.1177 9.12533 31.315 8.376 31.315 7.416C 31.315 6.45067 31.1177 5.69867 30.723 5.16C 30.3283 4.62133 29.731 4.352 28.931 4.352C 28.5257 4.352 28.1737 4.42133 27.875 4.56C 27.5763 4.69867 27.3257 4.89867 27.123 5.16C 26.9257 5.42133 26.7763 5.744 26.675 6.128C 26.579 6.50667 26.531 6.936 26.531 7.416C 26.531 7.896 26.579 8.32533 26.675 8.704C 26.7763 9.08267 26.9257 9.40267 27.123 9.664C 27.3257 9.92 27.5763 10.1173 27.875 10.256C 28.1737 10.3947 28.5257 10.464 28.931 10.464Z"/>
<path id="path4_fill" d="M 37.6354 14.208L 37.6354 3.36L 38.4834 3.36C 38.686 3.36 38.814 3.45867 38.8674 3.656L 38.9874 4.616C 39.334 4.19467 39.7287 3.856 40.1714 3.6C 40.6194 3.344 41.134 3.216 41.7154 3.216C 42.1794 3.216 42.6007 3.30667 42.9794 3.488C 43.358 3.664 43.6807 3.928 43.9474 4.28C 44.214 4.62667 44.4194 5.05867 44.5634 5.576C 44.7074 6.09333 44.7794 6.688 44.7794 7.36C 44.7794 7.95733 44.6994 8.51467 44.5394 9.032C 44.3794 9.544 44.15 9.98933 43.8514 10.368C 43.5527 10.7413 43.1847 11.0373 42.7474 11.256C 42.3154 11.4693 41.8274 11.576 41.2834 11.576C 40.782 11.576 40.3527 11.4933 39.9954 11.328C 39.6434 11.1627 39.3314 10.928 39.0594 10.624L 39.0594 14.208L 37.6354 14.208ZM 41.2434 4.368C 40.7794 4.368 40.3714 4.47467 40.0194 4.688C 39.6727 4.90133 39.3527 5.20267 39.0594 5.592L 39.0594 9.512C 39.3207 9.864 39.606 10.112 39.9154 10.256C 40.23 10.4 40.5794 10.472 40.9634 10.472C 41.7154 10.472 42.294 10.2027 42.6994 9.664C 43.1047 9.12533 43.3074 8.35733 43.3074 7.36C 43.3074 6.832 43.2594 6.37867 43.1634 6C 43.0727 5.62133 42.9394 5.312 42.7634 5.072C 42.5874 4.82667 42.3714 4.648 42.1154 4.536C 41.8594 4.424 41.5687 4.368 41.2434 4.368Z"/>
<path id="path5_fill" d="M 49.7435 3.232C 50.3355 3.232 50.8688 3.33067 51.3435 3.528C 51.8235 3.72533 52.2288 4.00533 52.5595 4.368C 52.8955 4.73067 53.1515 5.17067 53.3275 5.688C 53.5088 6.2 53.5995 6.77333 53.5995 7.408C 53.5995 8.048 53.5088 8.624 53.3275 9.136C 53.1515 9.648 52.8955 10.0853 52.5595 10.448C 52.2288 10.8107 51.8235 11.0907 51.3435 11.288C 50.8688 11.48 50.3355 11.576 49.7435 11.576C 49.1515 11.576 48.6155 11.48 48.1355 11.288C 47.6608 11.0907 47.2555 10.8107 46.9195 10.448C 46.5835 10.0853 46.3248 9.648 46.1435 9.136C 45.9622 8.624 45.8715 8.048 45.8715 7.408C 45.8715 6.77333 45.9622 6.2 46.1435 5.688C 46.3248 5.17067 46.5835 4.73067 46.9195 4.368C 47.2555 4.00533 47.6608 3.72533 48.1355 3.528C 48.6155 3.33067 49.1515 3.232 49.7435 3.232ZM 49.7435 10.464C 50.5435 10.464 51.1408 10.1973 51.5355 9.664C 51.9302 9.12533 52.1275 8.376 52.1275 7.416C 52.1275 6.45067 51.9302 5.69867 51.5355 5.16C 51.1408 4.62133 50.5435 4.352 49.7435 4.352C 49.3382 4.352 48.9862 4.42133 48.6875 4.56C 48.3888 4.69867 48.1382 4.89867 47.9355 5.16C 47.7382 5.42133 47.5888 5.744 47.4875 6.128C 47.3915 6.50667 47.3435 6.936 47.3435 7.416C 47.3435 7.896 47.3915 8.32533 47.4875 8.704C 47.5888 9.08267 47.7382 9.40267 47.9355 9.664C 48.1382 9.92 48.3888 10.1173 48.6875 10.256C 48.9862 10.3947 49.3382 10.464 49.7435 10.464Z"/>
<path id="path6_fill" d="M 59.9941 4.696C 59.9301 4.81333 59.8315 4.872 59.6981 4.872C 59.6181 4.872 59.5275 4.84267 59.4261 4.784C 59.3248 4.72533 59.1995 4.66133 59.0501 4.592C 58.9061 4.51733 58.7328 4.45067 58.5301 4.392C 58.3275 4.328 58.0875 4.296 57.8101 4.296C 57.5701 4.296 57.3541 4.328 57.1621 4.392C 56.9701 4.45067 56.8048 4.53333 56.6661 4.64C 56.5328 4.74667 56.4288 4.872 56.3541 5.016C 56.2848 5.15467 56.2501 5.30667 56.2501 5.472C 56.2501 5.68 56.3088 5.85333 56.4261 5.992C 56.5488 6.13067 56.7088 6.25067 56.9061 6.352C 57.1035 6.45333 57.3275 6.544 57.5781 6.624C 57.8288 6.69867 58.0848 6.78133 58.3461 6.872C 58.6128 6.95733 58.8715 7.05333 59.1221 7.16C 59.3728 7.26667 59.5968 7.4 59.7941 7.56C 59.9915 7.72 60.1488 7.91733 60.2661 8.152C 60.3888 8.38133 60.4501 8.65867 60.4501 8.984C 60.4501 9.35733 60.3835 9.704 60.2501 10.024C 60.1168 10.3387 59.9195 10.6133 59.6581 10.848C 59.3968 11.0773 59.0768 11.2587 58.6981 11.392C 58.3195 11.5253 57.8821 11.592 57.3861 11.592C 56.8208 11.592 56.3088 11.5013 55.8501 11.32C 55.3915 11.1333 55.0021 10.896 54.6821 10.608L 55.0181 10.064C 55.0608 9.99467 55.1115 9.94133 55.1701 9.904C 55.2288 9.86667 55.3061 9.848 55.4021 9.848C 55.4981 9.848 55.5995 9.88533 55.7061 9.96C 55.8128 10.0347 55.9408 10.1173 56.0901 10.208C 56.2448 10.2987 56.4288 10.3813 56.6421 10.456C 56.8608 10.5307 57.1328 10.568 57.4581 10.568C 57.7355 10.568 57.9781 10.5333 58.1861 10.464C 58.3941 10.3893 58.5675 10.2907 58.7061 10.168C 58.8448 10.0453 58.9461 9.904 59.0101 9.744C 59.0795 9.584 59.1141 9.41333 59.1141 9.232C 59.1141 9.008 59.0528 8.824 58.9301 8.68C 58.8128 8.53067 58.6555 8.40533 58.4581 8.304C 58.2608 8.19733 58.0341 8.10667 57.7781 8.032C 57.5275 7.952 57.2688 7.86933 57.0021 7.784C 56.7408 7.69867 56.4821 7.60267 56.2261 7.496C 55.9755 7.384 55.7515 7.24533 55.5541 7.08C 55.3568 6.91467 55.1968 6.712 55.0741 6.472C 54.9568 6.22667 54.8981 5.93067 54.8981 5.584C 54.8981 5.27467 54.9621 4.97867 55.0901 4.696C 55.2181 4.408 55.4048 4.15733 55.6501 3.944C 55.8955 3.72533 56.1968 3.552 56.5541 3.424C 56.9115 3.296 57.3195 3.232 57.7781 3.232C 58.3115 3.232 58.7888 3.31733 59.2101 3.488C 59.6368 3.65333 60.0048 3.88267 60.3141 4.176L 59.9941 4.696Z"/>
<path id="path7_fill" d="M 64.7476 11.592C 64.1076 11.592 63.6143 11.4133 63.2676 11.056C 62.9263 10.6987 62.7556 10.184 62.7556 9.512L 62.7556 4.552L 61.7796 4.552C 61.6943 4.552 61.6223 4.528 61.5636 4.48C 61.505 4.42667 61.4756 4.34667 61.4756 4.24L 61.4756 3.672L 62.8036 3.504L 63.1316 1C 63.1423 0.92 63.177 0.856 63.2356 0.808C 63.2943 0.754666 63.369 0.728 63.4596 0.728L 64.1796 0.728L 64.1796 3.52L 66.4996 3.52L 66.4996 4.552L 64.1796 4.552L 64.1796 9.416C 64.1796 9.75733 64.2623 10.0107 64.4276 10.176C 64.593 10.3413 64.8063 10.424 65.0676 10.424C 65.217 10.424 65.345 10.4053 65.4516 10.368C 65.5636 10.3253 65.6596 10.28 65.7396 10.232C 65.8196 10.184 65.8863 10.1413 65.9396 10.104C 65.9983 10.0613 66.049 10.04 66.0916 10.04C 66.1663 10.04 66.233 10.0853 66.2916 10.176L 66.7076 10.856C 66.4623 11.0853 66.1663 11.2667 65.8196 11.4C 65.473 11.528 65.1156 11.592 64.7476 11.592Z"/>
<path id="path8_fill" d="M 0 35.5955C 0 35.5955 11.596 -1.4745 35.738 0.0454982C 35.738 0.0454982 32.744 4.8945 25.187 6.4615C 25.187 6.4615 28.705 6.8905 31.556 5.9395C 31.556 5.9395 29.845 11.4545 20.531 12.2125C 20.531 12.2125 25.664 13.5435 27.945 12.7825C 27.945 12.7825 27.326 16.8935 17.843 18.9365C 17.281 19.0565 13.496 20.0035 16.537 20.3845C 16.537 20.3845 20.908 21.1475 22.051 20.7655C 22.051 20.7655 18.307 26.3725 9.123 25.8975C 8.22 25.8505 7.791 25.8975 7.791 25.8975L 0 35.5955Z"/>
</defs>
</svg>
