<svg width="109" height="36" viewBox="0 0 109 36" version="1.1" xmlns="http://www.w3.org/2000/svg" xmlns:xlink="http://www.w3.org/1999/xlink" xmlns:figma="http://www.figma.com/figma/ns">
<title>Vector</title>
<desc>Created using Figma</desc>
<g id="Canvas" transform="translate(-3232 -4438)" figma:type="canvas">
<g id="Vector" style="mix-blend-mode:normal;" figma:type="vector">
<use xlink:href="#path0_fill" transform="translate(3232 4438.2)" fill="#FFFFFF" style="mix-blend-mode:normal;"/>
<use xlink:href="#path1_fill" transform="translate(3232 4438.2)" fill="#FFFFFF" style="mix-blend-mode:normal;"/>
<use xlink:href="#path2_fill" transform="translate(3232 4438.2)" fill="#FFFFFF" style="mix-blend-mode:normal;"/>
<use xlink:href="#path3_fill" transform="translate(3232 4438.2)" fill="#FFFFFF" style="mix-blend-mode:normal;"/>
<use xlink:href="#path4_fill" transform="translate(3232 4438.2)" fill="#FFFFFF" style="mix-blend-mode:normal;"/>
<use xlink:href="#path5_fill" transform="translate(3232 4438.2)" fill="#FFFFFF" style="mix-blend-mode:normal;"/>
<use xlink:href="#path6_fill" transform="translate(3232 4438.2)" fill="#FFFFFF" style="mix-blend-mode:normal;"/>
<use xlink:href="#path7_fill" transform="translate(3232 4438.2)" fill="#FFFFFF" style="mix-blend-mode:normal;"/>
<use xlink:href="#path8_fill" transform="translate(3232 4438.2)" fill="#FFFFFF" style="mix-blend-mode:normal;"/>
</g>
</g>
<defs>
<path id="path0_fill" d="M 43.7473 22.3412L 48.7073 22.3412L 48.7073 23.6452L 42.1953 23.6452L 42.1953 12.1812L 43.7473 12.1812L 43.7473 22.3412Z"/>
<path id="path1_fill" d="M 53.1168 15.4132C 53.6021 15.4132 54.0501 15.4958 54.4608 15.6612C 54.8715 15.8212 55.2261 16.0558 55.5248 16.3652C 55.8235 16.6692 56.0555 17.0478 56.2208 17.5012C 56.3915 17.9492 56.4768 18.4612 56.4768 19.0372C 56.4768 19.2612 56.4528 19.4105 56.4048 19.4852C 56.3568 19.5598 56.2661 19.5972 56.1328 19.5972L 50.7408 19.5972C 50.7515 20.1092 50.8208 20.5545 50.9488 20.9332C 51.0768 21.3118 51.2528 21.6292 51.4768 21.8852C 51.7008 22.1358 51.9675 22.3252 52.2768 22.4532C 52.5861 22.5758 52.9328 22.6372 53.3168 22.6372C 53.6741 22.6372 53.9808 22.5972 54.2368 22.5172C 54.4981 22.4318 54.7221 22.3412 54.9088 22.2452C 55.0955 22.1492 55.2501 22.0612 55.3728 21.9812C 55.5008 21.8958 55.6101 21.8532 55.7008 21.8532C 55.8181 21.8532 55.9088 21.8985 55.9728 21.9892L 56.3728 22.5092C 56.1968 22.7225 55.9861 22.9092 55.7408 23.0692C 55.4955 23.2238 55.2315 23.3518 54.9488 23.4532C 54.6715 23.5545 54.3835 23.6292 54.0848 23.6772C 53.7861 23.7305 53.4901 23.7572 53.1968 23.7572C 52.6368 23.7572 52.1195 23.6638 51.6448 23.4772C 51.1755 23.2852 50.7675 23.0078 50.4208 22.6452C 50.0795 22.2772 49.8128 21.8238 49.6208 21.2852C 49.4288 20.7465 49.3328 20.1278 49.3328 19.4292C 49.3328 18.8638 49.4181 18.3358 49.5888 17.8452C 49.7648 17.3545 50.0155 16.9305 50.3408 16.5732C 50.6661 16.2105 51.0635 15.9278 51.5328 15.7252C 52.0021 15.5172 52.5301 15.4132 53.1168 15.4132ZM 53.1488 16.4612C 52.4608 16.4612 51.9195 16.6612 51.5248 17.0612C 51.1301 17.4558 50.8848 18.0052 50.7888 18.7092L 55.1968 18.7092C 55.1968 18.3785 55.1515 18.0772 55.0608 17.8052C 54.9701 17.5278 54.8368 17.2905 54.6608 17.0932C 54.4848 16.8905 54.2688 16.7358 54.0128 16.6292C 53.7621 16.5172 53.4741 16.4612 53.1488 16.4612Z"/>
<path id="path2_fill" d="M 58.2994 23.6452L 58.2994 15.5412L 59.1154 15.5412C 59.2701 15.5412 59.3768 15.5705 59.4354 15.6292C 59.4941 15.6878 59.5341 15.7892 59.5554 15.9332L 59.6514 17.1972C 59.9288 16.6318 60.2701 16.1918 60.6754 15.8772C 61.0861 15.5572 61.5661 15.3972 62.1154 15.3972C 62.3394 15.3972 62.5421 15.4238 62.7234 15.4772C 62.9048 15.5252 63.0728 15.5945 63.2274 15.6852L 63.0434 16.7492C 63.0061 16.8825 62.9234 16.9492 62.7954 16.9492C 62.7208 16.9492 62.6061 16.9252 62.4514 16.8772C 62.2968 16.8238 62.0808 16.7972 61.8034 16.7972C 61.3074 16.7972 60.8914 16.9412 60.5554 17.2292C 60.2248 17.5172 59.9474 17.9358 59.7234 18.4852L 59.7234 23.6452L 58.2994 23.6452Z"/>
<path id="path3_fill" d="M 71.1263 15.4132C 71.7183 15.4132 72.2516 15.5118 72.7263 15.7092C 73.2063 15.9065 73.6116 16.1865 73.9423 16.5492C 74.2783 16.9118 74.5343 17.3518 74.7103 17.8692C 74.8916 18.3812 74.9823 18.9545 74.9823 19.5892C 74.9823 20.2292 74.8916 20.8052 74.7103 21.3172C 74.5343 21.8292 74.2783 22.2665 73.9423 22.6292C 73.6116 22.9918 73.2063 23.2718 72.7263 23.4692C 72.2516 23.6612 71.7183 23.7572 71.1263 23.7572C 70.5343 23.7572 69.9983 23.6612 69.5183 23.4692C 69.0436 23.2718 68.6383 22.9918 68.3023 22.6292C 67.9663 22.2665 67.7076 21.8292 67.5263 21.3172C 67.345 20.8052 67.2543 20.2292 67.2543 19.5892C 67.2543 18.9545 67.345 18.3812 67.5263 17.8692C 67.7076 17.3518 67.9663 16.9118 68.3023 16.5492C 68.6383 16.1865 69.0436 15.9065 69.5183 15.7092C 69.9983 15.5118 70.5343 15.4132 71.1263 15.4132ZM 71.1263 22.6452C 71.9263 22.6452 72.5236 22.3785 72.9183 21.8452C 73.313 21.3065 73.5103 20.5572 73.5103 19.5972C 73.5103 18.6318 73.313 17.8798 72.9183 17.3412C 72.5236 16.8025 71.9263 16.5332 71.1263 16.5332C 70.721 16.5332 70.369 16.6025 70.0703 16.7412C 69.7716 16.8798 69.521 17.0798 69.3183 17.3412C 69.121 17.6025 68.9716 17.9252 68.8703 18.3092C 68.7743 18.6878 68.7263 19.1172 68.7263 19.5972C 68.7263 20.0772 68.7743 20.5065 68.8703 20.8852C 68.9716 21.2638 69.121 21.5838 69.3183 21.8452C 69.521 22.1012 69.7716 22.2985 70.0703 22.4372C 70.369 22.5758 70.721 22.6452 71.1263 22.6452Z"/>
<path id="path4_fill" d="M 79.8307 26.3892L 79.8307 15.5412L 80.6787 15.5412C 80.8814 15.5412 81.0093 15.6398 81.0627 15.8372L 81.1827 16.7972C 81.5294 16.3758 81.924 16.0372 82.3667 15.7812C 82.8147 15.5252 83.3294 15.3972 83.9107 15.3972C 84.3747 15.3972 84.796 15.4878 85.1747 15.6692C 85.5533 15.8452 85.876 16.1092 86.1427 16.4612C 86.4094 16.8078 86.6147 17.2398 86.7587 17.7572C 86.9027 18.2745 86.9747 18.8692 86.9747 19.5412C 86.9747 20.1385 86.8947 20.6958 86.7347 21.2132C 86.5747 21.7252 86.3454 22.1705 86.0467 22.5492C 85.748 22.9225 85.38 23.2185 84.9427 23.4372C 84.5107 23.6505 84.0227 23.7572 83.4787 23.7572C 82.9774 23.7572 82.548 23.6745 82.1907 23.5092C 81.8387 23.3438 81.5267 23.1092 81.2547 22.8052L 81.2547 26.3892L 79.8307 26.3892ZM 83.4387 16.5492C 82.9747 16.5492 82.5667 16.6558 82.2147 16.8692C 81.868 17.0825 81.548 17.3838 81.2547 17.7732L 81.2547 21.6932C 81.516 22.0452 81.8014 22.2932 82.1107 22.4372C 82.4254 22.5812 82.7747 22.6532 83.1587 22.6532C 83.9107 22.6532 84.4893 22.3838 84.8947 21.8452C 85.3 21.3065 85.5027 20.5385 85.5027 19.5412C 85.5027 19.0132 85.4547 18.5598 85.3587 18.1812C 85.268 17.8025 85.1347 17.4932 84.9587 17.2532C 84.7827 17.0078 84.5667 16.8292 84.3107 16.7172C 84.0547 16.6052 83.764 16.5492 83.4387 16.5492Z"/>
<path id="path5_fill" d="M 91.9388 15.4132C 92.5308 15.4132 93.0641 15.5118 93.5388 15.7092C 94.0188 15.9065 94.4241 16.1865 94.7548 16.5492C 95.0908 16.9118 95.3468 17.3518 95.5228 17.8692C 95.7041 18.3812 95.7948 18.9545 95.7948 19.5892C 95.7948 20.2292 95.7041 20.8052 95.5228 21.3172C 95.3468 21.8292 95.0908 22.2665 94.7548 22.6292C 94.4241 22.9918 94.0188 23.2718 93.5388 23.4692C 93.0641 23.6612 92.5308 23.7572 91.9388 23.7572C 91.3468 23.7572 90.8108 23.6612 90.3308 23.4692C 89.8561 23.2718 89.4508 22.9918 89.1148 22.6292C 88.7788 22.2665 88.5201 21.8292 88.3388 21.3172C 88.1575 20.8052 88.0668 20.2292 88.0668 19.5892C 88.0668 18.9545 88.1575 18.3812 88.3388 17.8692C 88.5201 17.3518 88.7788 16.9118 89.1148 16.5492C 89.4508 16.1865 89.8561 15.9065 90.3308 15.7092C 90.8108 15.5118 91.3468 15.4132 91.9388 15.4132ZM 91.9388 22.6452C 92.7388 22.6452 93.3361 22.3785 93.7308 21.8452C 94.1255 21.3065 94.3228 20.5572 94.3228 19.5972C 94.3228 18.6318 94.1255 17.8798 93.7308 17.3412C 93.3361 16.8025 92.7388 16.5332 91.9388 16.5332C 91.5335 16.5332 91.1815 16.6025 90.8828 16.7412C 90.5841 16.8798 90.3335 17.0798 90.1308 17.3412C 89.9335 17.6025 89.7841 17.9252 89.6828 18.3092C 89.5868 18.6878 89.5388 19.1172 89.5388 19.5972C 89.5388 20.0772 89.5868 20.5065 89.6828 20.8852C 89.7841 21.2638 89.9335 21.5838 90.1308 21.8452C 90.3335 22.1012 90.5841 22.2985 90.8828 22.4372C 91.1815 22.5758 91.5335 22.6452 91.9388 22.6452Z"/>
<path id="path6_fill" d="M 102.189 16.8772C 102.125 16.9945 102.027 17.0532 101.893 17.0532C 101.813 17.0532 101.723 17.0238 101.621 16.9652C 101.52 16.9065 101.395 16.8425 101.245 16.7732C 101.101 16.6985 100.928 16.6318 100.725 16.5732C 100.523 16.5092 100.283 16.4772 100.005 16.4772C 99.7654 16.4772 99.5494 16.5092 99.3574 16.5732C 99.1654 16.6318 99.0001 16.7145 98.8614 16.8212C 98.7281 16.9278 98.6241 17.0532 98.5494 17.1972C 98.4801 17.3358 98.4454 17.4878 98.4454 17.6532C 98.4454 17.8612 98.5041 18.0345 98.6214 18.1732C 98.7441 18.3118 98.9041 18.4318 99.1014 18.5332C 99.2988 18.6345 99.5228 18.7252 99.7734 18.8052C 100.024 18.8798 100.28 18.9625 100.541 19.0532C 100.808 19.1385 101.067 19.2345 101.317 19.3412C 101.568 19.4478 101.792 19.5812 101.989 19.7412C 102.187 19.9012 102.344 20.0985 102.461 20.3332C 102.584 20.5625 102.645 20.8398 102.645 21.1652C 102.645 21.5385 102.579 21.8852 102.445 22.2052C 102.312 22.5198 102.115 22.7945 101.853 23.0292C 101.592 23.2585 101.272 23.4398 100.893 23.5732C 100.515 23.7065 100.077 23.7732 99.5814 23.7732C 99.0161 23.7732 98.5041 23.6825 98.0454 23.5012C 97.5868 23.3145 97.1974 23.0772 96.8774 22.7892L 97.2134 22.2452C 97.2561 22.1758 97.3068 22.1225 97.3654 22.0852C 97.4241 22.0478 97.5014 22.0292 97.5974 22.0292C 97.6934 22.0292 97.7948 22.0665 97.9014 22.1412C 98.0081 22.2158 98.1361 22.2985 98.2854 22.3892C 98.4401 22.4798 98.6241 22.5625 98.8374 22.6372C 99.0561 22.7118 99.3281 22.7492 99.6534 22.7492C 99.9308 22.7492 100.173 22.7145 100.381 22.6452C 100.589 22.5705 100.763 22.4718 100.901 22.3492C 101.04 22.2265 101.141 22.0852 101.205 21.9252C 101.275 21.7652 101.309 21.5945 101.309 21.4132C 101.309 21.1892 101.248 21.0052 101.125 20.8612C 101.008 20.7118 100.851 20.5865 100.653 20.4852C 100.456 20.3785 100.229 20.2878 99.9734 20.2132C 99.7228 20.1332 99.4641 20.0505 99.1974 19.9652C 98.9361 19.8798 98.6774 19.7838 98.4214 19.6772C 98.1708 19.5652 97.9468 19.4265 97.7494 19.2612C 97.5521 19.0958 97.3921 18.8932 97.2694 18.6532C 97.1521 18.4078 97.0934 18.1118 97.0934 17.7652C 97.0934 17.4558 97.1574 17.1598 97.2854 16.8772C 97.4134 16.5892 97.6001 16.3385 97.8454 16.1252C 98.0908 15.9065 98.3921 15.7332 98.7494 15.6052C 99.1068 15.4772 99.5148 15.4132 99.9734 15.4132C 100.507 15.4132 100.984 15.4985 101.405 15.6692C 101.832 15.8345 102.2 16.0638 102.509 16.3572L 102.189 16.8772Z"/>
<path id="path7_fill" d="M 106.943 23.7732C 106.303 23.7732 105.81 23.5945 105.463 23.2372C 105.122 22.8798 104.951 22.3652 104.951 21.6932L 104.951 16.7332L 103.975 16.7332C 103.89 16.7332 103.818 16.7092 103.759 16.6612C 103.7 16.6078 103.671 16.5278 103.671 16.4212L 103.671 15.8532L 104.999 15.6852L 105.327 13.1812C 105.338 13.1012 105.372 13.0372 105.431 12.9892C 105.49 12.9358 105.564 12.9092 105.655 12.9092L 106.375 12.9092L 106.375 15.7012L 108.695 15.7012L 108.695 16.7332L 106.375 16.7332L 106.375 21.5972C 106.375 21.9385 106.458 22.1918 106.623 22.3572C 106.788 22.5225 107.002 22.6052 107.263 22.6052C 107.412 22.6052 107.54 22.5865 107.647 22.5492C 107.759 22.5065 107.855 22.4612 107.935 22.4132C 108.015 22.3652 108.082 22.3225 108.135 22.2852C 108.194 22.2425 108.244 22.2212 108.287 22.2212C 108.362 22.2212 108.428 22.2665 108.487 22.3572L 108.903 23.0372C 108.658 23.2665 108.362 23.4478 108.015 23.5812C 107.668 23.7092 107.311 23.7732 106.943 23.7732Z"/>
<path id="path8_fill" d="M 0 35.5955C 0 35.5955 11.596 -1.4745 35.738 0.0454982C 35.738 0.0454982 32.744 4.8945 25.187 6.4615C 25.187 6.4615 28.705 6.8905 31.556 5.9395C 31.556 5.9395 29.845 11.4545 20.531 12.2125C 20.531 12.2125 25.664 13.5435 27.945 12.7825C 27.945 12.7825 27.326 16.8935 17.843 18.9365C 17.281 19.0565 13.496 20.0035 16.537 20.3845C 16.537 20.3845 20.908 21.1475 22.051 20.7655C 22.051 20.7655 18.307 26.3725 9.123 25.8975C 8.22 25.8505 7.791 25.8975 7.791 25.8975L 0 35.5955Z"/>
</defs>
</svg>
