<svg width="97" height="131" viewBox="0 0 97 131" version="1.1" xmlns="http://www.w3.org/2000/svg" xmlns:xlink="http://www.w3.org/1999/xlink" xmlns:figma="http://www.figma.com/figma/ns">
<title>Layer 1</title>
<desc>Created using Figma</desc>
<g id="Canvas" transform="translate(-3191 -2342)" figma:type="canvas">
<g id="Layer 1" style="mix-blend-mode:normal;" figma:type="frame">
<g id="Vector" style="mix-blend-mode:normal;" figma:type="vector">
<use xlink:href="#path0_fill" transform="translate(3191 2342.84)" fill="#FFFFFF" style="mix-blend-mode:normal;"/>
</g>
<g id="Vector" style="mix-blend-mode:normal;" figma:type="vector">
<use xlink:href="#path1_fill" transform="translate(3215.27 2367.21)" fill="#FFFFFF" style="mix-blend-mode:normal;"/>
</g>
</g>
</g>
<defs>
<path id="path0_fill" d="M 48.5405 0C 35.6667 0 23.3203 5.13615 14.2172 14.2785C 5.11407 23.4209 5.74834e-14 35.8207 0 48.75C 0.0151285 57.312 2.27525 65.7189 6.55296 73.125L 6.55296 73.125L 48.5405 130L 90.447 73.125C 94.7248 65.7189 96.9849 57.312 97 48.75C 97 35.8348 91.8971 23.4473 82.8114 14.3072C 73.7258 5.16717 61.4002 0.0215254 48.5405 0ZM 80.9008 73.125L 48.5405 116.269L 16.1802 73.125C 10.9288 66.093 8.09008 57.54 8.09008 48.75C 8.09008 37.9756 12.3518 27.6425 19.9377 20.0238C 27.5236 12.4051 37.8123 8.125 48.5405 8.125C 59.2686 8.125 69.5573 12.4051 77.1432 20.0238C 84.7291 27.6425 88.9908 37.9756 88.9908 48.75C 88.9908 57.54 86.1521 66.093 80.9008 73.125L 80.9008 73.125Z"/>
<path id="path1_fill" d="M 24.2702 0C 17.8334 0 11.6601 2.56807 7.10858 7.13927C 2.55703 11.7105 0 17.9103 0 24.375C 0 30.8397 2.55703 37.0395 7.10858 41.6107C 11.6601 46.1819 17.8334 48.75 24.2702 48.75C 30.7071 48.75 36.8803 46.1819 41.4319 41.6107C 45.9834 37.0395 48.5405 30.8397 48.5405 24.375C 48.5405 17.9103 45.9834 11.7105 41.4319 7.13927C 36.8803 2.56807 30.7071 0 24.2702 0ZM 24.2702 40.625C 19.979 40.625 15.8635 38.913 12.8291 35.8655C 9.79476 32.818 8.09008 28.6848 8.09008 24.375C 8.09008 20.0652 9.79476 15.932 12.8291 12.8845C 15.8635 9.83705 19.979 8.125 24.2702 8.125C 28.5615 8.125 32.677 9.83705 35.7113 12.8845C 38.7457 15.932 40.4504 20.0652 40.4504 24.375C 40.4504 28.6848 38.7457 32.818 35.7113 35.8655C 32.677 38.913 28.5615 40.625 24.2702 40.625Z"/>
</defs>
</svg>
