<svg width="37" height="37" viewBox="0 0 37 37" version="1.1" xmlns="http://www.w3.org/2000/svg" xmlns:xlink="http://www.w3.org/1999/xlink" xmlns:figma="http://www.figma.com/figma/ns">
<title>dog-bone</title>
<desc>Created using Figma</desc>
<g id="Canvas" transform="translate(-3430 -359)" figma:type="canvas">
<g id="dog-bone" style="mix-blend-mode:normal;" figma:type="frame">
<g id="Group" style="mix-blend-mode:normal;" figma:type="frame">
<g id="Group" style="mix-blend-mode:normal;" figma:type="frame">
<g id="Vector" style="mix-blend-mode:normal;" figma:type="vector">
<use xlink:href="#path0_fill" transform="matrix(0.707107 0.707107 -0.707107 0.707107 3448.5 359.824)" fill="#FFFFFF" style="mix-blend-mode:normal;"/>
</g>
</g>
</g>
<mask id="mask0_alpha" mask-type="alpha">
<path d="M 3448.5 359.822L 3450.5 361.818L 3448.5 363.814L 3446.5 361.818L 3448.5 359.822Z" fill="#FFFFFF"/>
</mask>
<g id="Group" style="mix-blend-mode:normal;" mask="url(#mask0_alpha)" figma:type="frame">
</g>
<mask id="mask1_alpha" mask-type="alpha">
<path d="M 3448.5 359.822L 3450.5 361.818L 3448.5 363.814L 3446.5 361.818L 3448.5 359.822Z" fill="#FFFFFF"/>
</mask>
<g id="Group" style="mix-blend-mode:normal;" mask="url(#mask1_alpha)" figma:type="frame">
</g>
<mask id="mask2_alpha" mask-type="alpha">
<path d="M 3448.5 359.822L 3450.5 361.818L 3448.5 363.814L 3446.5 361.818L 3448.5 359.822Z" fill="#FFFFFF"/>
</mask>
<g id="Group" style="mix-blend-mode:normal;" mask="url(#mask2_alpha)" figma:type="frame">
</g>
<mask id="mask3_alpha" mask-type="alpha">
<path d="M 3448.5 359.822L 3450.5 361.818L 3448.5 363.814L 3446.5 361.818L 3448.5 359.822Z" fill="#FFFFFF"/>
</mask>
<g id="Group" style="mix-blend-mode:normal;" mask="url(#mask3_alpha)" figma:type="frame">
</g>
<mask id="mask4_alpha" mask-type="alpha">
<path d="M 3448.5 359.822L 3450.5 361.818L 3448.5 363.814L 3446.5 361.818L 3448.5 359.822Z" fill="#FFFFFF"/>
</mask>
<g id="Group" style="mix-blend-mode:normal;" mask="url(#mask4_alpha)" figma:type="frame">
</g>
<mask id="mask5_alpha" mask-type="alpha">
<path d="M 3448.5 359.822L 3450.5 361.818L 3448.5 363.814L 3446.5 361.818L 3448.5 359.822Z" fill="#FFFFFF"/>
</mask>
<g id="Group" style="mix-blend-mode:normal;" mask="url(#mask5_alpha)" figma:type="frame">
</g>
<mask id="mask6_alpha" mask-type="alpha">
<path d="M 3448.5 359.822L 3450.5 361.818L 3448.5 363.814L 3446.5 361.818L 3448.5 359.822Z" fill="#FFFFFF"/>
</mask>
<g id="Group" style="mix-blend-mode:normal;" mask="url(#mask6_alpha)" figma:type="frame">
</g>
<mask id="mask7_alpha" mask-type="alpha">
<path d="M 3448.5 359.822L 3450.5 361.818L 3448.5 363.814L 3446.5 361.818L 3448.5 359.822Z" fill="#FFFFFF"/>
</mask>
<g id="Group" style="mix-blend-mode:normal;" mask="url(#mask7_alpha)" figma:type="frame">
</g>
<mask id="mask8_alpha" mask-type="alpha">
<path d="M 3448.5 359.822L 3450.5 361.818L 3448.5 363.814L 3446.5 361.818L 3448.5 359.822Z" fill="#FFFFFF"/>
</mask>
<g id="Group" style="mix-blend-mode:normal;" mask="url(#mask8_alpha)" figma:type="frame">
</g>
<mask id="mask9_alpha" mask-type="alpha">
<path d="M 3448.5 359.822L 3450.5 361.818L 3448.5 363.814L 3446.5 361.818L 3448.5 359.822Z" fill="#FFFFFF"/>
</mask>
<g id="Group" style="mix-blend-mode:normal;" mask="url(#mask9_alpha)" figma:type="frame">
</g>
<mask id="mask10_alpha" mask-type="alpha">
<path d="M 3448.5 359.822L 3450.5 361.818L 3448.5 363.814L 3446.5 361.818L 3448.5 359.822Z" fill="#FFFFFF"/>
</mask>
<g id="Group" style="mix-blend-mode:normal;" mask="url(#mask10_alpha)" figma:type="frame">
</g>
<mask id="mask11_alpha" mask-type="alpha">
<path d="M 3448.5 359.822L 3450.5 361.818L 3448.5 363.814L 3446.5 361.818L 3448.5 359.822Z" fill="#FFFFFF"/>
</mask>
<g id="Group" style="mix-blend-mode:normal;" mask="url(#mask11_alpha)" figma:type="frame">
</g>
<mask id="mask12_alpha" mask-type="alpha">
<path d="M 3448.5 359.822L 3450.5 361.818L 3448.5 363.814L 3446.5 361.818L 3448.5 359.822Z" fill="#FFFFFF"/>
</mask>
<g id="Group" style="mix-blend-mode:normal;" mask="url(#mask12_alpha)" figma:type="frame">
</g>
<mask id="mask13_alpha" mask-type="alpha">
<path d="M 3448.5 359.822L 3450.5 361.818L 3448.5 363.814L 3446.5 361.818L 3448.5 359.822Z" fill="#FFFFFF"/>
</mask>
<g id="Group" style="mix-blend-mode:normal;" mask="url(#mask13_alpha)" figma:type="frame">
</g>
<mask id="mask14_alpha" mask-type="alpha">
<path d="M 3448.5 359.822L 3450.5 361.818L 3448.5 363.814L 3446.5 361.818L 3448.5 359.822Z" fill="#FFFFFF"/>
</mask>
<g id="Group" style="mix-blend-mode:normal;" mask="url(#mask14_alpha)" figma:type="frame">
</g>
</g>
</g>
<defs>
<path id="path0_fill" d="M 21.3106 3.69074C 21.3501 2.73402 21.0058 1.76601 20.2747 1.03507C 18.8889 -0.350654 16.6507 -0.342187 15.2648 1.04353C 14.1697 2.13854 13.9241 3.75283 14.5818 5.09619L 5.09533 14.5844C 3.75182 13.9268 2.13734 14.1723 1.04221 15.2673C -0.343635 16.6502 -0.34928 18.8938 1.03657 20.2795C 1.7676 21.0105 2.73289 21.352 3.68972 21.3125C 3.6502 22.2692 3.99455 23.2372 4.72558 23.9653C 6.11143 25.351 8.34967 25.3425 9.73552 23.9569C 10.8307 22.8618 11.0734 21.2476 10.4158 19.9042L 19.9022 10.4188C 21.2457 11.0764 22.8602 10.8309 23.9553 9.73585C 25.3412 8.35013 25.3468 6.1065 23.961 4.72084C 23.2299 3.99274 22.2674 3.65123 21.3106 3.69074Z"/>
</defs>
</svg>
