<svg width="130" height="131" viewBox="0 0 130 131" version="1.1" xmlns="http://www.w3.org/2000/svg" xmlns:xlink="http://www.w3.org/1999/xlink" xmlns:figma="http://www.figma.com/figma/ns">
<title>Layer 1</title>
<desc>Created using Figma</desc>
<g id="Canvas" transform="translate(-3836 -2342)" figma:type="canvas">
<g id="Layer 1" style="mix-blend-mode:normal;" figma:type="frame">
<g id="Vector" style="mix-blend-mode:normal;" figma:type="vector">
<use xlink:href="#path0_fill" transform="translate(3836 2342.84)" fill="#FFFFFF" style="mix-blend-mode:normal;"/>
</g>
</g>
</g>
<defs>
<path id="path0_fill" d="M 65 0C 52.1442 0 39.5771 3.81218 28.888 10.9545C 18.1988 18.0968 9.86755 28.2484 4.94786 40.1256C 0.0281637 52.0028 -1.25905 65.0721 1.24899 77.6808C 3.75702 90.2896 9.94767 101.872 19.0381 110.962C 28.1285 120.052 39.7104 126.243 52.3191 128.751C 64.9279 131.259 77.9972 129.972 89.8744 125.052C 101.752 120.132 111.903 111.801 119.046 101.112C 126.188 90.4229 130 77.8558 130 65C 130 47.7609 123.152 31.2279 110.962 19.0381C 98.7721 6.84819 82.2391 0 65 0ZM 65 121.875C 53.7512 121.875 42.755 118.539 33.402 112.29C 24.0489 106.04 16.7591 97.1576 12.4544 86.7651C 8.14965 76.3726 7.02333 64.9369 9.21786 53.9042C 11.4124 42.8716 16.8292 32.7374 24.7833 24.7833C 32.7374 16.8292 42.8716 11.4124 53.9043 9.21783C 64.9369 7.0233 76.3726 8.14962 86.7651 12.4543C 97.1577 16.7591 106.04 24.0489 112.29 33.4019C 118.539 42.755 121.875 53.7512 121.875 65C 121.875 80.0842 115.883 94.5505 105.217 105.217C 94.5506 115.883 80.0842 121.875 65 121.875ZM 40.625 48.75C 42.232 48.75 43.8029 48.2735 45.139 47.3807C 46.4752 46.4879 47.5166 45.2189 48.1315 43.7343C 48.7465 42.2496 48.9074 40.616 48.5939 39.0399C 48.2804 37.4638 47.5066 36.0161 46.3703 34.8797C 45.234 33.7435 43.7862 32.9696 42.2101 32.6561C 40.634 32.3426 39.0004 32.5035 37.5157 33.1185C 36.0311 33.7334 34.7621 34.7748 33.8693 36.111C 32.9765 37.4471 32.5 39.018 32.5 40.625C 32.5 42.7799 33.356 44.8465 34.8798 46.3702C 36.4035 47.894 38.4701 48.75 40.625 48.75ZM 89.375 32.5C 87.768 32.5 86.1972 32.9765 84.861 33.8693C 83.5248 34.7621 82.4835 36.031 81.8685 37.5157C 81.2535 39.0003 81.0926 40.634 81.4061 42.2101C 81.7196 43.7862 82.4935 45.2339 83.6298 46.3702C 84.7661 47.5065 86.2138 48.2804 87.7899 48.5939C 89.366 48.9074 90.9997 48.7465 92.4843 48.1315C 93.969 47.5165 95.2379 46.4751 96.1307 45.139C 97.0235 43.8028 97.5 42.232 97.5 40.625C 97.5 38.4701 96.644 36.4035 95.1202 34.8797C 93.5965 33.356 91.5299 32.5 89.375 32.5ZM 65 97.5C 59.9572 97.5026 55.0377 95.9411 50.9195 93.0308C 46.8014 90.1204 43.6872 86.0044 42.0063 81.25L 33.8813 81.25C 35.6712 88.2409 39.737 94.4372 45.4375 98.8621C 51.1381 103.287 58.1493 105.689 65.3656 105.689C 72.582 105.689 79.5932 103.287 85.2937 98.8621C 90.9943 94.4372 95.0601 88.2409 96.85 81.25L 88.725 81.25C 87.0044 86.1243 83.7787 90.3253 79.5141 93.2463C 75.2495 96.1673 70.1667 97.6569 65 97.5Z"/>
</defs>
</svg>
