<svg width="36" height="30" viewBox="0 0 36 30" version="1.1" xmlns="http://www.w3.org/2000/svg" xmlns:xlink="http://www.w3.org/1999/xlink" xmlns:figma="http://www.figma.com/figma/ns">
<title>twitter_white</title>
<desc>Created using Figma</desc>
<g id="Canvas" transform="translate(-3462 -4883)" figma:type="canvas">
<g id="twitter_white" style="mix-blend-mode:normal;" figma:type="frame">
<g id="Layer 2" style="mix-blend-mode:normal;" figma:type="frame">
<g id="Layer 1" style="mix-blend-mode:normal;" figma:type="frame">
<g id="Vector" style="mix-blend-mode:normal;" figma:type="vector">
<use xlink:href="#path0_fill" transform="translate(3462 4883)" fill="#FFFFFF" style="mix-blend-mode:normal;"/>
</g>
</g>
</g>
</g>
</g>
<defs>
<path id="path0_fill" d="M 36 3.55516C 34.6501 4.15261 33.2206 4.54048 31.7587 4.70594C 33.2954 3.77118 34.45 2.2999 35.01 0.563144C 33.5595 1.44181 31.9729 2.06062 30.3188 2.39288C 29.2054 1.17666 27.7305 0.370697 26.1232 0.100262C 24.5159 -0.170173 22.8664 0.110065 21.4308 0.897421C 19.9953 1.68478 18.8542 2.93515 18.185 4.4542C 17.5157 5.97326 17.3558 7.67591 17.73 9.29754C 14.7927 9.14528 11.9197 8.36273 9.29732 7.0007C 6.67498 5.63867 4.36205 3.72763 2.50875 1.3917C 1.55869 3.05115 1.26252 5.01856 1.68052 6.8935C 2.09853 8.76843 3.19928 10.41 4.75875 11.484C 3.57587 11.4521 2.41804 11.1284 1.38375 10.5404C 1.38375 10.5404 1.38375 10.6094 1.38375 10.6324C 1.38378 12.3779 1.97422 14.0696 3.05488 15.4205C 4.13555 16.7713 5.63985 17.6981 7.3125 18.0434C 6.21206 18.3511 5.05701 18.3944 3.9375 18.17C 4.4087 19.671 5.32677 20.9837 6.56329 21.9246C 7.79981 22.8655 9.29291 23.3875 10.8337 23.4176C 8.21869 25.5171 4.98935 26.656 1.665 26.6512C 1.10854 26.6487 0.552658 26.6142 0 26.5477C 3.36965 28.7873 7.29901 29.986 11.3175 30C 24.9075 29.931 32.3325 18.4232 32.3325 8.44596C 32.3325 8.11607 32.3325 7.79002 32.3325 7.4678C 33.7724 6.39662 35.0142 5.07173 36 3.55516L 36 3.55516Z"/>
</defs>
</svg>
